# xmcd CD database file
#
# Track frame offsets:
#	150
#	11461
#	22447
#	41988
#	57559
#	68135
#
# Disc length: 1081 seconds
#
# Revision: 0
# Processed by: cddbd v1.4PL0 Copyright (c) Steve Scherf et al.
# Submitted via: CDex 1.50
#
DISCID=56043706
DTITLE=Southwest Union - The Best Of
DYEAR=1900
DGENRE=Country
TTITLE0=Cry, Cry, Cry
TTITLE1=Nashville Rag
TTITLE2=Kawliga
TTITLE3=Let's Work Together
TTITLE4=It's Countrytime In Town
TTITLE5=Folsom Prison Blues
EXTD=
EXTT0=
EXTT1=
EXTT2=
EXTT3=
EXTT4=
EXTT5=
PLAYORDER=
